<svg xmlns="http://www.w3.org/2000/svg" width="46" height="42" viewBox="0 0 46 42" fill="none"><path d="M7.82255 11.4959L7.8974 11.6028V11.7311L7.61936 11.9931L7.4643 12.0947L7.29319 12.191L6.951 12.3621L6.60879 12.5171L6.42166 12.5706L6.23451 12.608L5.69982 12.6722H5.51267H5.13838L4.96729 12.6294L4.59836 12.5813L4.48606 12.5546L4.25614 12.4958L4.1011 12.4209L4.05296 12.3621H4.13318L4.33101 12.3888H4.51815L4.72132 12.4156H4.92451H5.09562H5.44851H5.63566L5.83885 12.3781L6.21312 12.3033L6.40027 12.2338L6.74246 12.0627L6.92427 11.9771L7.09536 11.8969L7.41082 11.6616L7.54985 11.5333L7.70492 11.4959H7.82255ZM14.3191 9.15393L14.2709 9.34641L14.2228 9.55495L14.0677 9.96665L13.8806 10.3677L13.7844 10.5441L13.6614 10.7259L13.5384 10.8863L13.255 11.1804L13.1 11.3087L12.7898 11.544L12.6508 11.6402L12.1856 11.8915L12.0145 11.9611L11.8595 12.0145L11.6884 12.068L11.5173 12.1054L10.9826 12.1856L10.8115 12.2231H10.1752L9.78486 12.1856L9.58703 12.1589L9.39988 12.1215L9.19671 12.0627H9.12185L9.16461 12.0894L9.44266 12.2231L9.67793 12.3086L10.0201 12.4262L10.1912 12.453H10.7259H11.4745H11.6563L11.8434 12.3995L12.0306 12.3621L12.4049 12.2551L12.7471 12.1001L12.9182 12.0145L13.3994 11.683L13.5544 11.5707L13.6935 11.4371L13.8218 11.2927L13.9608 11.0842L14.0357 10.9719L14.1479 10.8061L14.2389 10.6457L14.3191 10.4693L14.3832 10.2768L14.442 10.1057L14.5062 9.9132L14.6024 9.3785V9.18601V9.0149V8.83846L14.5704 8.65131V8.48021L14.5062 8.30912L14.4313 8.1487L14.3672 7.9776H14.3351V8.04177L14.3672 8.24494L14.3993 8.43209V8.61923V8.75291L14.3191 9.15393ZM10.9184 3.56105L10.8703 3.62521L10.7794 3.72145L10.6671 3.87117L10.5762 4.03158L10.496 4.20802L10.4051 4.36843L10.3249 4.54488L10.2768 4.72132L10.2126 4.89778L10.1698 5.06887V5.18117L10.2661 5.2079H10.3891L10.5281 5.12234L10.6243 5.01006L10.6832 4.83362L10.8115 4.5128L10.8863 4.35239L10.9665 4.20802L11.1858 3.91395V3.69472L11.0147 3.57174H10.9238L10.9184 3.56105ZM5.06353 10.5762L5.17048 10.4907L5.27741 10.3623L5.42177 10.2607L5.57683 10.1966L5.74794 10.1592H5.80675L5.6517 10.0896L5.37365 10.0469H5.18652L5.01541 10.1271L4.87639 10.2607V10.4318L4.93521 10.6029L5.06353 10.5762ZM2.65742 10.7313V10.5602V10.357V10.1698L2.74831 9.81694L2.90873 9.46404L2.99961 9.30364L3.1226 9.17532L3.26696 9.04165L3.42203 8.92401L3.73216 8.75826L3.90325 8.68875L4.13318 8.61923H4.2615L4.4326 8.5818H4.6144H4.80154H4.98867H5.17582L5.53407 8.61923L5.72121 8.65667L5.88697 8.69943L6.04201 8.7743L6.22916 8.81707L6.40027 8.88658L6.55533 8.94539H6.6783L6.7906 8.86519L6.8494 8.68875L6.94565 8.32516L7.13279 7.79047L7.18091 7.61401L7.22903 7.42686L7.27715 7.25042L7.33598 6.86544L7.40014 6.69434L7.44826 6.5179L7.57124 6.165L7.6354 5.9725L7.73164 5.62496L7.77443 5.43247L7.83859 5.25602L7.88671 5.07958L7.95087 4.90312L8.02573 4.72668L8.08989 4.55557L8.24496 4.20267L8.3412 4.04227L8.41605 3.86581L8.49625 3.70541L8.60319 3.5557L8.8545 3.26696L8.99353 3.13329L9.14857 3.02101L9.4587 2.8499L9.81694 2.80713H9.98804L10.1592 2.8499L10.4693 2.96753L10.6243 3.05309L10.7313 3.17607L10.6992 3.32043L10.3891 3.71076L10.2661 3.90325L10.1698 4.06366L10.0896 4.2401L9.96665 4.593L9.91853 4.76944L9.79556 5.11701L9.74744 5.29345L9.68327 5.46989L9.71536 5.59823L9.83833 5.641H10.0255L10.2126 5.60356L10.5869 5.51267L10.758 5.4592L10.9451 5.38969L11.2873 5.2186L11.4584 5.11701L11.6135 5.02075L11.7686 4.90312L11.9076 4.75876L12.0306 4.60904L12.1429 4.44864L12.2338 4.28822L12.33 4.11178L12.3888 3.93533L12.4369 3.74284V3.34718L12.3942 3.16003L12.314 2.98893L12.2231 2.81782L12.1001 2.67881L11.9611 2.54514L11.806 2.43819L11.6456 2.3366L11.4584 2.28313L11.0842 2.19758L10.7152 2.14946H10.3249H9.95596H9.78486H9.59773H9.41058L9.22344 2.18689L9.05233 2.24036L8.86519 2.27779L8.6941 2.31521L8.52299 2.36868L8.18078 2.49167L8.00969 2.56118L7.83859 2.64672L7.68352 2.74297L7.51242 2.84457L7.35737 2.94616L7.07932 3.17607L6.94031 3.30439L6.81197 3.44875L6.70504 3.61452L6.62483 3.77492L6.56602 3.95137L6.5179 4.12247L6.45374 4.29893L6.42166 4.49141V4.66252V4.855L6.46978 5.04214L6.51255 5.21325L6.54463 5.34157L6.60879 5.57683V5.7319L6.53394 5.8923L6.4377 6.02064L6.20777 6.21847L6.02064 6.35214L5.86557 6.42166L5.52336 6.46443L5.35227 6.4056L5.19721 6.31471L4.91917 6.06876L4.79619 5.93509L4.68391 5.78002L4.593 5.60891L4.51815 5.43781L4.45398 5.26672L4.40586 5.09026L4.37913 4.90312V4.33635L4.41121 4.14386L4.47537 3.90325L4.56628 3.58778L4.64648 3.41134L4.73736 3.25092L4.95659 2.92477L5.33088 2.48632L5.46991 2.35799L5.94042 2.01045L6.09549 1.90885L6.26659 1.8233L6.42166 1.711L6.57671 1.62547L6.76385 1.55596L6.93496 1.48644L7.10606 1.40624L7.28786 1.32069L7.45896 1.25118L7.77443 1.16027L8.00434 1.09078L8.53903 0.978479L8.72618 0.925007H8.90797H9.09512L9.59238 0.844806L9.84368 0.818078H10.2126L10.774 0.850158H10.9612H11.159H11.3462L11.5333 0.876887L11.9076 0.957103L12.4423 1.13354L12.6294 1.17098L12.9716 1.32069L13.1427 1.41158L13.2978 1.49713L13.4529 1.60408L13.6079 1.72705L13.7469 1.86607L13.886 1.9837L13.9929 2.12273L14.0998 2.27779L14.18 2.44888L14.2709 2.61999L14.3351 2.79109L14.3779 2.97824L14.442 3.35787V3.73749L14.3779 4.11712L14.3137 4.29358L14.2335 4.45398L14.0464 4.7748L13.9555 4.91916L13.5812 5.31484L13.4422 5.42712L13.239 5.56079L12.977 5.69447L12.8059 5.78002L12.3086 5.94042L12.1215 5.97785L11.9664 6.00993H11.9023L11.9664 6.03668L12.1375 6.07945L12.6027 6.23985L12.8166 6.34144L12.9716 6.43235L13.1106 6.53927L13.2497 6.6783L13.378 6.81197L13.4849 6.951L13.763 7.41618L13.8378 7.58728L13.886 7.76372L13.9448 7.93483L13.9768 8.12197L14.0089 8.29308L14.041 8.67271V8.85985L14.0143 9.05233L13.9822 9.22879L13.9341 9.41592L13.8699 9.59238L13.7844 9.82229L13.7095 9.99873L13.6133 10.1592L13.5063 10.3356L13.3994 10.5013L13.2711 10.6457L13.1481 10.774L13.0091 10.9077L12.87 11.0521L12.7257 11.1697L12.5706 11.282L12.4156 11.3836L12.2444 11.4691L12.0733 11.5386L11.9023 11.6242L11.7151 11.6884L11.544 11.7418L11.1751 11.8167L10.8008 11.8648H10.4265H10.2554H10.0736H9.88645L9.71536 11.8381L9.54426 11.7953L9.18601 11.7151L9.0149 11.6723L8.84381 11.6135L8.30912 11.3943L8.15405 11.3194L7.99899 11.2285L7.84394 11.1269L7.70492 11.02L7.56054 10.9933L7.43757 11.0574L7.29854 11.2071L7.15952 11.3355L7.00447 11.4691L6.46978 11.7686L6.29867 11.8381L6.11153 11.9076L5.92438 11.9611L5.53407 12.0038L5.35227 12.0413H5.14909H4.79084H4.4326L4.2615 12.0145L3.91929 11.945L3.75353 11.9023L3.58244 11.8434L3.41134 11.7739L3.25627 11.6991L2.97824 11.4852L2.8499 11.3622L2.74297 11.2071L2.66811 11.0521L2.60395 10.881L2.65742 10.7313ZM8.30912 9.87041L8.36793 10.0094L8.52299 10.1164L8.75826 10.25L8.86519 10.3089L9.10045 10.4105L9.2074 10.4586L9.3785 10.5281L9.56563 10.5869L9.74744 10.6297L9.93457 10.6564H10.3089H10.512L10.6992 10.619L10.881 10.5655L11.0521 10.48L11.2232 10.3837L11.3676 10.25L11.6135 9.92388L11.8327 9.60307L11.9129 9.42662L12.052 8.8545V8.67804V8.49091V8.29842L12.0199 8.12731L11.929 7.78512L11.8702 7.61401L11.7739 7.45895L11.6509 7.31994L11.528 7.19695L11.3889 7.09002L11.2339 6.98308L11.0788 6.89217L10.8917 6.82268L10.6457 6.75316L10.5067 6.72108L9.89716 6.64622H9.4801L9.32503 6.74781L9.21809 6.87613L9.15393 7.05259L9.10581 7.2237L9.00957 7.60866L8.95074 7.78512L8.91866 7.96156L8.82242 8.30912L8.75826 8.5016L8.63527 8.8545L8.58715 9.02561L8.46417 9.3785L8.38397 9.55495L8.30912 9.71535V9.87041ZM4.51815 10.3089V10.496L4.62508 10.6511L4.78015 10.774L4.96729 10.8275H5.15442L5.35761 10.774L5.5394 10.7206L5.72655 10.619L5.89765 10.4907L6.04201 10.3249L6.165 10.1484L6.19708 10.0041L6.0848 9.8811L5.97785 9.85437L5.83885 9.77952L5.69982 9.73674L5.54475 9.71001H5.17048L4.98333 9.74743L4.80154 9.81694L4.64112 9.96665L4.53419 10.1271L4.51815 10.3089ZM14.2335 5.14374L14.1266 5.27206L14.0036 5.40573L13.8592 5.50199L13.7362 5.61962L13.4582 5.83349L13.3031 5.93509L13.1481 6.01529L13.0839 6.09549L13.116 6.17569L13.2069 6.25055L13.3459 6.29332H13.501L13.656 6.21312L13.7844 6.07945L13.9287 5.96717L14.1105 5.80141L14.2068 5.70516L14.3458 5.58752L14.4688 5.4592L14.5971 5.30949L14.688 5.16513L14.7842 4.98867L14.9072 4.63577L14.9553 4.46468L14.9874 4.27218V4.06366V3.86048V3.65729L14.9553 3.44875L14.8965 3.26163L14.8056 3.07983L14.7575 3.01566V3.07983V3.26696V3.63056V3.82305L14.7094 3.99949L14.6773 4.17059L14.6292 4.34705L14.565 4.50745L14.4741 4.66785L14.3191 4.98867L14.2335 5.14374ZM6.90288 5.93509L6.81197 6.09549L6.72108 6.22381L6.57671 6.35748L6.45374 6.48582L6.29867 6.61414L6.14361 6.71038L5.98856 6.77989L5.81745 6.83336L5.75329 6.86544H5.81745H6.17569L6.34144 6.82801L6.51255 6.7585L6.67296 6.689L6.82801 6.58741L6.96704 6.47511L7.09002 6.35748L7.19695 6.21312L7.29319 6.06876L7.34133 5.8923L7.37341 5.7212L7.32529 5.56079L7.27715 5.38969L7.21834 5.2186L7.12744 4.87104V4.68391L7.15952 4.50745L7.2023 4.33635L7.2825 4.17594L7.37874 4.01554L7.50173 3.86581L7.60867 3.72145L7.74768 3.58778L8.03107 3.35787L8.18613 3.24559L8.3412 3.14399L8.68339 2.97824L9.02561 2.83921L9.25552 2.7697L9.3678 2.73227L9.53891 2.67881L9.9132 2.58791H10.0789H10.3303H10.8115H10.9986L10.8115 2.56118L10.6083 2.53444H10.4211H10.2394H10.0362H9.84904L9.4587 2.57722L9.08977 2.65207L8.90262 2.72158L8.71547 2.75901L8.52835 2.82853L8.35724 2.89802L8.18613 2.99961L7.99899 3.08517L7.82788 3.18141L7.67284 3.283L7.51777 3.40063L7.41082 3.48085L7.2237 3.6466L7.08467 3.79097L6.97239 3.95137L6.86544 4.14922L6.80128 4.33635L6.75316 4.54488V4.76411V4.97263L6.78524 5.17582L6.84405 5.379L6.90823 5.55011L6.93496 5.7212V5.89765L6.90288 5.93509ZM8.86519 9.9132H8.97213L9.06837 9.8116L9.13253 9.63515L9.2074 9.4587L9.33572 9.11116L9.39454 8.91866L9.4587 8.74222L9.52287 8.54972L9.58169 8.37328L9.62981 8.18078L9.69397 8.00968L9.81694 7.62471L9.92924 7.49638L10.0682 7.41082H10.4693H10.6724H10.8756L11.0788 7.43757L11.2606 7.4643H11.3408L11.2927 7.40549L11.1376 7.29854L10.9665 7.1916L10.8596 7.13279L10.7366 7.09002L10.6297 7.06328L10.4586 7.03655L10.3035 6.99377L10.1324 6.96704H9.97736H9.79021L9.57099 7.03655L9.46406 7.16487L9.41592 7.34131L9.35176 7.51777L9.21275 8.05246L9.14857 8.2289L9.10045 8.40536L9.07373 8.5818L9.00957 8.75826L8.92936 8.91866L8.80638 9.26621L8.75826 9.44266L8.6941 9.61911V9.74743L8.75826 9.87041L8.86519 9.9132ZM21.3503 4.25079L21.2701 4.41121L21.1899 4.58765L21.0027 4.90847L20.8958 5.07422L20.7835 5.25068L20.6766 5.41108L20.5536 5.57148L20.4413 5.7319L20.3183 5.89765L20.1953 6.04201L20.0563 6.20777L19.7408 6.46978L19.2756 6.89217L19.1206 7.04189L18.9655 7.15418L18.5752 7.42153L18.1421 7.68888L17.832 7.88671L17.6609 7.95622L17.5165 8.07385L17.4417 8.2503L17.3935 8.45348V8.67804L17.3133 9.2876V9.48008V9.65119L17.3561 9.82229L17.4363 9.96665L17.5432 10.0094L17.5914 9.9132V9.7207L17.6555 9.37315L17.6876 9.18065L17.7785 8.64596L17.8266 8.46952L17.9229 8.3412L18.0459 8.2289L18.217 8.14335L18.372 8.05781L18.5271 7.96156L18.6982 7.876L18.8693 7.77443L19.0083 7.67817L19.1473 7.5445L19.3077 7.44291L19.6179 7.21299L19.7569 7.10071L19.8959 6.96704L20.0189 6.82268L20.3023 6.56067L20.4252 6.41095L20.5322 6.26659L20.7835 5.99389L20.9065 5.84418L21.1257 5.52336L21.3128 5.20254L21.393 5.04214L21.5 4.87639L21.5802 4.71599L21.639 4.52349L21.8315 3.9888L21.8743 3.79632L21.9063 3.61986L21.9384 3.43271V3.24023L21.9705 3.05309V2.67346L21.9277 2.48632L21.8796 2.30987L21.8154 2.13877L21.7406 1.95162L21.6925 1.90885V1.95698L21.7245 2.14412V2.31521V2.66276V2.83921L21.6604 3.18676L21.6123 3.36322L21.5802 3.53966L21.5374 3.71076L21.4732 3.88721L21.4091 4.04762L21.3503 4.25079ZM18.3506 5.32018L18.5645 4.99402L18.6608 4.81758L18.7517 4.65716L18.8639 4.48072L18.9388 4.32031L19.0511 4.0797L19.2382 3.59847L19.3024 3.42203L19.3612 3.22954L19.5056 2.65742V2.5184L19.4574 2.45423L19.3826 2.50236L19.3024 2.60395L19.1954 2.78039L19.0832 2.97289L18.9923 3.16537L18.8372 3.58243L18.757 3.77492L18.6928 3.96207L18.618 4.13851L18.3025 4.94055L18.2704 5.11701L18.2223 5.27206L18.1635 5.44851V5.51267L18.2223 5.46455L18.3506 5.32018ZM15.2173 9.74743L15.1853 9.3678V9.18065V8.97213L15.2334 8.78499L15.2655 8.59251L15.2975 8.21286L15.3938 7.64075L15.5328 7.06863L15.5809 6.89217L15.6291 6.69969L15.6932 6.32006L15.7841 5.93509L15.9231 5.54475L15.9819 5.35227L16.0301 5.17582L16.0782 4.98333L16.1263 4.81223L16.1851 4.63577L16.2493 4.44329L16.4043 4.09039L16.5487 3.73749L16.7038 3.38459L16.7947 3.20815L16.8749 3.04774L16.9818 2.87129L17.3561 2.22432L17.5753 1.9035L17.6876 1.75914L17.9336 1.46505L18.217 1.20306L18.3399 1.07474L18.479 0.941063L18.6982 0.80739L18.8212 0.759254L18.9923 0.673717L19.1634 0.604205L19.3345 0.566772L19.5216 0.52934H19.7087H19.8906L20.0777 0.556084L20.2648 0.609541L20.4359 0.668365L20.591 0.759254L20.73 0.866199L20.869 0.989184L20.992 1.1389L21.1043 1.29395L21.1952 1.44901L21.3182 1.79122L21.3663 1.96766L21.4091 2.15481V2.34195V2.72158V2.91406L21.377 3.10121L21.3289 3.27767L21.2807 3.47015L21.2219 3.66264L21.1578 3.83909L21.0027 4.18663L20.9385 4.36309L20.8423 4.53953L20.7514 4.70528L20.6445 4.8657L20.5001 5.07422L20.4252 5.1865L20.329 5.34692L20.2221 5.50732L19.9708 5.80141L19.8317 5.93509L19.7087 6.07945L19.5697 6.19173L19.4093 6.3254L18.8746 6.86009L18.5592 7.09002L18.4041 7.1916L18.233 7.29319L17.9068 7.47499L17.7518 7.57658L17.5272 7.68352L17.3401 7.74768L17.2011 7.86532L17.1262 8.00968L17.046 8.38932L17.0139 8.5818V8.7743V8.97749L16.9818 9.35711V9.73674L17.0139 9.92388L17.0888 10.111L17.1957 10.2661L17.3508 10.357L17.5379 10.4318H17.9122L18.0993 10.3944L18.2811 10.3409L18.4683 10.2714L18.6394 10.1912L18.8105 10.0896L18.9655 9.98804L19.1206 9.87576L19.2917 9.75813L19.4361 9.6405L19.5751 9.49614L19.6981 9.35176L19.9654 9.07373L20.0884 8.90797L20.1953 8.74756L20.4145 8.4107L20.5268 8.2503L20.5589 8.20753L20.5856 8.10593L20.714 7.75304L20.7888 7.57658L20.8851 7.41618L20.992 7.27182L21.0883 7.09536L21.1791 6.94565L21.2914 6.78524L21.4144 6.64087L21.5053 6.48047L21.6336 6.33075L21.8796 6.07409L22.0186 5.94042L22.147 5.8121L22.302 5.69447L22.441 5.59823L22.7351 5.35227L22.8741 5.23464L23.0345 5.13305L23.1896 5.05283L23.3607 4.98333L23.7029 4.81223L23.874 4.74272L24.0398 4.68924L24.2109 4.65716L24.398 4.6144L25.1786 4.52884H25.5636H25.7508L25.9379 4.57161L26.5261 4.64648L26.7132 4.68924L26.9004 4.74807L27.2372 4.89243L27.5794 5.07422L27.7345 5.17582L27.8735 5.31484L27.9965 5.45385L28.0767 5.60891L28.0286 5.78537L27.9377 5.96181L27.8254 6.10617L27.7024 6.23985L27.5634 6.35214L27.4244 6.45374L27.2533 6.41095L26.911 6.22916L26.7239 6.14361L26.4138 6.00993L26.1678 5.92438L25.9807 5.88161L25.7775 5.85487H25.5155H25.3765H25.1733L24.783 5.89765L24.414 6.03668L24.2429 6.12221L24.0237 6.27193L23.9114 6.35214L23.6013 6.58741L23.4623 6.73177L23.3393 6.87613L23.227 7.04189L23.1201 7.21834L22.7458 7.92414L22.6816 8.10058L22.6228 8.29308L22.4945 8.64596L22.4464 8.81707L22.4036 9.00957L22.3715 9.38919V9.58167L22.4036 9.76882L22.4517 9.95596L22.5587 10.095L22.7137 10.2019H22.9169L23.088 10.1645L23.2591 10.0629L23.4142 9.94528L23.5532 9.81694L23.6922 9.66723L23.9114 9.34641L24.1146 9.00957L24.2215 8.84381L24.3178 8.66735L24.5531 8.13266L24.644 7.95622L24.7242 7.76372L24.799 7.59262L24.8632 7.41618L24.9434 7.23974L25.0022 7.04724L25.0503 6.85476L25.0984 6.6783L25.2054 6.53394L25.3765 6.46443L25.5476 6.42699H25.7187H25.9058L26.0769 6.45374L26.4031 6.53927L26.5742 6.5981L26.7293 6.66761L26.8843 6.7585L26.9271 6.90288V7.05793L26.8843 7.23438L26.756 7.57124L26.7079 7.73164L26.5689 8.26634L26.5207 8.42675L26.4779 8.60319L26.4138 8.95074L26.3817 9.11116L26.3496 9.28225V9.4587V9.80625L26.4084 9.96132L26.5207 10.0843H26.6918L26.8576 10.0469L27.0287 9.96132L27.1891 9.86506L27.3441 9.74743L27.4832 9.61375L27.6222 9.46939L27.6864 9.2876L28.0179 8.80103L28.1997 8.48021L28.312 8.31981L28.4028 8.14335L28.4617 8.02038V7.96691L28.5579 7.58193L28.6221 7.38945L28.6809 7.21834L28.7451 7.02585L28.9001 6.67295L29.0124 6.51255L29.1033 6.3361L29.4295 5.84953L29.5578 5.70516L29.6968 5.55544L29.8358 5.42712L30.1299 5.16513L30.44 4.92986L30.7822 4.74807L30.9533 4.66252L31.2046 4.57696L31.3276 4.53953L31.7019 4.44864L31.889 4.39517L32.0762 4.35774H32.4612H32.6643L33.0386 4.41121L33.2204 4.45398L33.4076 4.48072L33.7498 4.62508L33.9209 4.73203L34.0599 4.84966L34.1668 5.00471L34.2631 5.17582L34.3219 5.36296L34.37 5.55544V5.74259V5.95113L34.3379 6.13825L34.2898 6.33075L34.1347 6.68365L34.0225 6.84405L33.8834 6.97773L33.7284 7.07397L33.3862 7.21299H33.1509H33.0279H32.8408H32.5039L32.3328 7.15418L32.1938 7.05259V6.87613L32.2687 6.71573L32.381 6.55533L32.4558 6.37887L32.52 6.20243L32.5521 6.00993L32.52 5.83883L32.4451 5.68378L32.29 5.62496H32.1029L31.9158 5.67843L31.7607 5.74794L31.6056 5.86557L31.4666 5.99389L31.3383 6.12221L31.2153 6.27193L31.1084 6.43235L31.0121 6.59275L30.9319 6.75316L30.841 6.91357L30.7181 7.26646L30.6539 7.45895L30.6218 7.63005L30.5897 7.82255V7.99899V8.18613V8.39466V8.5818V8.7743L30.6165 8.96144L30.6967 9.13253L30.7876 9.30364L30.8945 9.4587L31.0228 9.59771L31.1779 9.71535L31.333 9.80625L31.5148 9.8811L31.889 9.92924H32.2794L32.4772 9.8918L32.6643 9.85437L32.8515 9.8009L33.0386 9.73139L33.2097 9.64585L33.3808 9.54426L33.846 9.19669L34.1294 8.9347L34.2684 8.79034L34.3914 8.64596L34.5144 8.48021L34.6267 8.31981L34.7176 8.15941L34.8459 7.91879L34.878 7.75839L34.9101 7.57124L34.9528 7.39478L35.0811 7.02585L35.1239 6.8494L35.156 6.66226L35.2202 6.46978L35.3164 6.11688L35.3752 5.94042L35.4394 5.75329L35.5677 5.40039L35.6105 5.22394L35.6586 5.03145L35.7067 4.86035L35.7549 4.66785L35.8137 4.49141L35.8618 4.29893L36.1131 3.59847L36.1773 3.40599L36.3002 3.05309L36.3484 2.87665L36.3965 2.6895L36.4553 2.51304L36.5034 2.3366L36.5676 2.16016L36.6478 1.9837L36.7066 1.79122L36.7708 1.61476L36.8189 1.44366L36.8777 1.26722L37.0381 0.914319L37.2253 0.379627L37.3162 0.219226L37.4445 0.0908885L37.6263 0.0374324L37.8134 0H38.2198L38.4069 0.0267281H38.6048L38.9791 0.0748484L39.1662 0.149713L39.3213 0.256642V0.427747L39.2731 0.604205L39.1929 0.780646L39.1288 0.957103L39.0058 1.32603L38.9416 1.51317L38.8828 1.68963L38.8026 1.86607L38.7384 2.04253L38.6636 2.21897L38.5994 2.39541L38.5353 2.58791L38.4925 2.77505L38.3642 3.12795L38.2893 3.30439L38.2251 3.48085L38.161 3.67333L38.0968 3.84977L38.054 4.02623L37.9899 4.19734L37.9417 4.38982L37.8776 4.56628L37.7546 4.95125L37.7065 5.1277L37.6584 5.31484V5.379L37.7706 5.31484L37.8455 5.22929L38.0327 5.05283L38.1289 4.96729L38.2519 4.83896L38.3909 4.72132L38.546 4.60904L38.701 4.52349L38.8721 4.43794L39.0432 4.36843L39.1983 4.28822L39.3694 4.21871L39.5405 4.1813L39.7276 4.14386H39.8506H40.0859H40.273L40.6152 4.19734L40.7863 4.23475L40.9521 4.29358L41.1071 4.40051L41.2355 4.52349L41.3424 4.6946L41.4172 4.84966L41.4814 5.02075L41.5242 5.2079V5.39504V5.58752L41.4921 5.78002L41.444 5.96717L41.3852 6.14361L41.305 6.32006L41.1178 6.64087L40.9949 6.80662L40.8826 6.951L40.7435 7.09536L40.6206 7.24507L40.4976 7.37341L40.3425 7.49104L40.1714 7.58728L40.011 7.68888L39.5031 7.94018L39.332 8.00968L39.2197 8.12731L39.1555 8.27169V8.44279V8.61923L39.2197 8.96144L39.3106 9.30899L39.4015 9.46404L39.5137 9.58703L39.6528 9.67258L39.8185 9.74743H39.9896H40.1768L40.3639 9.71001L40.551 9.6405L40.7222 9.55495L40.8772 9.45335L41.1873 9.19136L41.3264 9.06302L41.4386 8.90262L41.5616 8.73687L41.6846 8.59251L41.8129 8.43209L41.9038 8.27169L42.0161 8.08989L42.091 7.91879L42.1872 7.737L42.2781 7.57658L42.4064 7.43222L42.5615 7.3627L42.7326 7.45361L42.8984 7.56054V7.73164L42.8502 7.9081L42.6631 8.26098L42.5722 8.4214L42.4759 8.59784L42.369 8.7743L42.2781 8.9347L42.0589 9.26087L41.9306 9.42127L41.5295 9.84368L41.4012 9.9934L41.2622 10.1217L40.9521 10.3837L40.797 10.5013L40.642 10.6029L40.4708 10.6992L40.2997 10.7847L39.9255 10.9238L39.7383 10.9772L39.5512 11.0147H39.1822L38.84 10.9612L38.4978 10.8489L38.3428 10.774L38.2038 10.6831L38.0647 10.5602L37.9417 10.4265L37.8455 10.2714L37.7706 10.111L37.6958 9.93992L37.5728 9.59771L37.5086 9.25552L37.4766 9.06302V8.87589V8.69943V8.16474V7.9883L37.5407 7.83324L37.6637 7.73164L37.8348 7.66213L38.3695 7.41082L38.5246 7.30923L38.8026 7.07932L38.9416 6.951L39.07 6.81732L39.3159 6.52859L39.4122 6.36283L39.471 6.19173V6.01529L39.3961 5.86022L39.2892 5.7212L39.1181 5.64635L38.947 5.60356H38.7598L38.5727 5.641L38.4016 5.72655L38.2305 5.82814L38.0754 5.94577L37.9364 6.05805L37.514 6.45374L37.1878 6.93496L37.113 7.1114L36.9847 7.4643L36.9098 7.64075L36.8617 7.83324L36.8136 8.00434L36.7654 8.19682L36.7173 8.37328L36.6585 8.56576L36.6264 8.75291L36.5783 8.92935L36.5462 9.12185L36.4981 9.31433L36.466 9.50147L36.3751 9.85437L36.327 10.0415L36.2949 10.234L36.204 10.5869L36.1398 10.7794L36.0276 10.9238L35.8458 11.0093L35.6586 11.0788L35.4554 11.1163H35.2522H35.0491H34.8512L34.4449 11.0681L34.2577 11.0093L34.1347 10.9291L34.0759 10.9879L33.9316 11.1002L33.7765 11.2018L33.6214 11.282L33.4503 11.3676L32.7659 11.6456L32.5948 11.683L32.413 11.7204L32.2419 11.7686L32.0708 11.806H31.8837H31.6965H31.5094H31.1512L30.9801 11.7793L30.6432 11.6937L30.4721 11.6402L30.317 11.5494L30.2689 11.5173H30.3598H30.563H30.7662H30.9052H31.4025H31.6217L31.8195 11.4798L32.0227 11.4264L32.397 11.3194L32.5681 11.282L32.782 11.1965L32.8943 11.143L33.1081 11.0574L33.3755 10.9398L33.5305 10.8382L33.7016 10.7366L33.8567 10.6243L34.1294 10.3944V10.2982L34.1615 10.1057L34.2417 9.82229L34.1027 9.96665L34.0064 10.0469L33.8674 10.1805L33.7284 10.2928L33.5733 10.3944L33.4022 10.496L33.2472 10.6083L33.0921 10.7099L32.937 10.7794L32.7659 10.8649L32.4237 10.9986L32.2366 11.0521L32.0494 11.0895L31.8783 11.1269H31.6912L31.5201 11.1644H31.333H30.964H30.7769H30.4026L30.2315 11.1376L30.0604 11.0842L29.8893 11.0093L29.6754 10.9024L29.5685 10.8436L29.3974 10.758L29.2423 10.6671L29.1033 10.5441L28.975 10.4051L28.868 10.25L28.7771 10.095L28.7397 10.1538L28.6328 10.3035L28.5044 10.4479L28.2264 10.7099L28.1034 10.8382L27.9751 10.9879L27.8361 11.1323L27.697 11.2499L27.3869 11.4478L27.0608 11.6456L26.8897 11.7151L26.6544 11.7846L26.3443 11.8595H26.1571H25.986L25.7989 11.822L25.6331 11.7632L25.5529 11.6991L25.6331 11.6509H25.8042H25.97L26.1411 11.6135L26.4833 11.5066L26.8095 11.3729L26.9645 11.3034L27.28 11.1055L27.403 10.9719L27.82 10.6297L28.0713 10.3356L28.1943 10.1752L28.3066 10.0148L28.4456 9.86506L28.5472 9.74743L28.5098 9.65654L28.4456 9.48543V9.36246L28.3708 9.47474L28.1195 9.76882L28.0125 9.92924L27.8842 10.0736L27.7452 10.2073L27.4832 10.48L27.3441 10.6136L27.2479 10.7099L27.0447 10.8756L26.8897 10.9772L26.7186 11.0735L26.5475 11.159L26.3764 11.2285L26.1892 11.282L26.0074 11.3194H25.8203H25.446L25.2749 11.2927L25.1198 11.2553L24.9648 11.1483L24.8418 11.0414L24.7509 10.8863L24.6867 10.7152L24.6546 10.5388L24.6119 10.3677V10.1966V10.0201V9.83298V9.65654V9.59238L24.5798 9.6405L24.4889 9.82229L24.3927 9.98269L24.2857 10.1431L24.0344 10.4372L23.9275 10.5976L23.8045 10.7259L23.6601 10.8596L23.35 11.0895L23.1949 11.1751L22.8527 11.3408L22.6816 11.3943L22.3074 11.4691H22.1256H21.5909L21.4198 11.4264L21.2487 11.3515L21.0936 11.2606L20.9546 11.1697L20.6766 10.9291L20.5696 10.7901L20.5322 10.7259L20.4413 10.8382L20.0242 11.2339L19.8852 11.3462L19.7301 11.4638L19.559 11.5654L19.4628 11.6296L19.2436 11.7632L19.0725 11.8488L18.9067 11.9183L18.7784 11.9664L18.5485 12.052L18.3774 12.1054L18.1902 12.1429L18.0191 12.1803L17.832 12.2177H17.6448H17.4577L17.0888 12.1803L16.9176 12.1375L16.5755 11.9931L16.5434 11.929H16.6236H16.7626H16.9925H17.3775L17.7518 11.8862L17.9389 11.8488L18.1261 11.7953L18.3132 11.7579L18.495 11.6884L18.6661 11.6188L19.1046 11.4157L19.3077 11.298L19.4467 11.2018L19.5858 11.0842L19.6767 11.02L19.8638 10.8542L20.0028 10.7259L20.1472 10.5762L20.2702 10.4158L20.3771 10.2554L20.3343 10.0789V9.8918V9.82229L20.2862 9.88645L20.2114 9.98804L20.0991 10.1324L19.8531 10.4265L19.7087 10.5548L19.5858 10.6992L19.4467 10.8168L19.2917 10.9291L19.1366 11.0307L18.9816 11.1483L18.8265 11.2285L18.6554 11.3141L18.4683 11.3836L18.2972 11.4691L18.1261 11.5226L17.9389 11.56H17.7518L17.5807 11.5975L17.2064 11.6402H17.0246H16.8374L16.4632 11.5921L16.276 11.5333L16.1049 11.4584L15.9499 11.3569L15.8108 11.2499L15.6718 11.1269L15.458 10.8168L15.3617 10.6457L15.3029 10.4746L15.2548 10.2875L15.228 10.1003V9.90784L15.2173 9.74743ZM17.5219 6.41631V6.48047H17.6181L17.8801 6.28263L18.0619 6.07945L18.3399 5.78537L18.5912 5.4592L18.9174 4.97798L19.1366 4.61973L19.2275 4.44329L19.3077 4.26683L19.3719 4.0797L19.5109 3.71076L19.5751 3.53431L19.6339 3.34183L19.682 3.14933L19.7301 2.97824L19.7783 2.78574V2.39007L19.7301 2.21897L19.6553 2.04786L19.5002 2.0051L19.3291 2.04253L19.1901 2.17085L19.0618 2.32056L18.9709 2.48096L18.8639 2.64138L18.6768 2.9622L18.5164 3.31508L18.3292 3.84977L18.2811 4.02088L18.2223 4.1813L18.1421 4.3417L18.0191 4.6946L17.955 4.855L17.9229 5.03145L17.8748 5.2079L17.8159 5.36296L17.7518 5.5394L17.7197 5.6517L17.6448 5.8923L17.5967 6.06876L17.5326 6.22916L17.5219 6.41631ZM27.2372 7.26111L27.1303 7.35737L27.0822 7.54985L27.018 7.72629L26.9271 8.07385L26.879 8.26634L26.8148 8.61388L26.7667 8.79034L26.7079 9.04698L26.6758 9.18601V9.3785V9.58167L26.7346 9.69397H26.8629L26.9699 9.62446L27.0608 9.48008L27.1249 9.30364V9.10045L27.1731 8.90797L27.2693 8.49625L27.3281 8.28773L27.3762 8.09523L27.4244 7.89206L27.4885 7.68352L27.5206 7.49104L27.4725 7.31994L27.3816 7.24507L27.2372 7.26111ZM24.8044 6.19173L24.6172 6.26124L24.4301 6.34679L24.259 6.44839L24.1039 6.56602L23.9489 6.69434L23.8098 6.84405L23.6869 6.98843L23.5585 7.14883L23.4516 7.32527L23.3286 7.49104L23.2163 7.65144L23.1254 7.82788L23.0773 7.95622V8.02038V8.10058L23.0132 8.2289L22.9383 8.43744L22.8581 8.62992L22.81 8.81707L22.7779 8.99353V9.10581V9.29295V9.56563L22.842 9.79556L22.949 9.85972L23.0559 9.77417L23.088 9.61375L23.1201 9.42662L23.1682 9.23413L23.2324 9.05769L23.2645 8.87054L23.3072 8.67804L23.3714 8.48556L23.4355 8.30912L23.5104 8.13266L23.6869 7.7958L23.7778 7.6354L24.1039 7.19695L24.3552 6.93496L24.4942 6.82268L24.6493 6.72108L24.7883 6.60879L24.9594 6.39491L25.0878 6.25055L25.1305 6.20243L25.0717 6.17035H25.0075L24.8044 6.19173ZM27.9377 6.46978L27.7505 6.65157L27.5955 6.75316L27.5527 6.81732L27.5955 6.87613L27.7505 6.951H27.9056L28.0606 6.8708L28.205 6.73712L28.328 6.60879L28.451 6.45907L28.5472 6.29867L28.59 6.12221L28.5151 5.96717L28.4082 5.86022L28.328 5.91369L28.2799 6.02597L28.189 6.18639L28.082 6.31471L27.9377 6.46978ZM24.4194 10.8061L24.3445 10.742L24.1841 10.8756L23.9863 11.0681L23.8419 11.2018L23.751 11.2499L23.596 11.3515L23.4569 11.4531L23.3447 11.5173L23.1896 11.6028L23.0345 11.667L22.8795 11.7204L22.5373 11.7953H22.3662H22.0721H21.917L21.7941 11.7686H21.7138L21.762 11.8327L21.9331 11.9023L22.1042 11.9611H22.2913H22.4624H22.8314L23.0024 11.9236H23.1254L23.5318 11.8007L23.6869 11.6991L23.8419 11.6188L23.9809 11.5012L24.136 11.3996L24.2804 11.2713L24.4033 11.1376L24.4675 11.0093V10.8542L24.4194 10.8061ZM34.0439 7.28786L33.8727 7.38945L33.5305 7.52312L33.3434 7.56054L33.1135 7.58728H33.0012L32.9103 7.64075L32.9905 7.69956L33.1723 7.74233H33.5626L33.9369 7.69956L34.1027 7.68352L34.2898 7.63005L34.4609 7.53381L34.6053 7.3841L34.7122 7.2237L34.8031 7.0312L34.8673 6.85476L34.9635 6.44303V6.23451V6.03133L34.9154 5.84418L34.8405 5.65704L34.7603 5.59287L34.7336 5.65704V5.76933V5.88161V6.05272L34.6908 6.22916L34.6267 6.4056L34.5785 6.58206L34.4983 6.74246L34.1722 7.17556L34.0439 7.28786ZM31.2955 7.9776L31.4185 7.59262L31.5736 7.23974L31.6698 7.06328L31.7661 6.90288L31.873 6.74246L31.996 6.57671L32.1243 6.43235L32.2152 6.27193L32.2633 6.14361V6.03133L32.1992 5.9725L32.0922 6.00458L31.9372 6.09013L31.7981 6.19173L31.6698 6.30402L31.5629 6.43235L31.4559 6.58206L31.3597 6.72642L31.2688 6.88684L31.1405 7.20764L31.0923 7.36806L31.0335 7.53916L30.9694 7.69956L30.9212 7.876L30.8892 8.05246V8.22357V8.41605V8.60319L30.9212 8.79568L30.9801 8.98282L31.0603 9.15393L31.1351 9.26087H31.1832L31.1512 9.13253V8.75291L31.2955 7.9776ZM41.4172 6.77989L41.1713 7.13814L41.0323 7.2825L40.8451 7.44826L40.4708 7.74233L40.3746 7.81184L40.1768 7.94018L40.0217 8.02573L39.8613 8.09523L39.7062 8.18078L39.5993 8.29308L39.5512 8.43744V8.60855L39.5833 8.79568L39.626 8.97213L39.6902 9.14324L39.7971 9.26621L39.9362 9.37315H40.0324V9.27691L40.0003 9.18601L39.9522 9.0149V8.83846V8.71547L40.011 8.58715L40.1393 8.46952L40.3104 8.40001L40.4815 8.31981L40.6366 8.21822L40.8077 8.11662L40.9628 8.02038L41.1018 7.90275L41.2408 7.77443L41.3638 7.62471L41.4761 7.48034L41.599 7.33598L41.706 7.18626L41.8022 7.02585L41.9573 6.67295L42.0215 6.49651L42.0696 6.3254L42.1017 6.13292V5.95646V5.76933L42.0696 5.58219L42.0215 5.40573L41.9626 5.23464L41.8985 5.19186V5.27206V5.6517L41.8022 6.03133L41.7113 6.23985L41.6311 6.43235L41.5242 6.62483L41.4172 6.77989ZM42.9197 8.54972L42.7326 8.87054L42.6417 9.0149L42.5455 9.17532L42.4385 9.34107L42.2032 9.62981L42.0963 9.77417L41.4119 10.4158L41.0964 10.6778L40.9414 10.7901L40.5992 10.9933L40.4174 11.0788L40.0431 11.2178L39.856 11.2713H39.6528H39.5137H39.1127L39.0325 11.3087L39.0646 11.3515L39.2036 11.4264L39.3587 11.4852L39.5298 11.5119L39.7009 11.5547H39.872L40.1019 11.5012L40.396 11.4264L40.5671 11.3729L40.6794 11.3408L40.9093 11.2499L41.0804 11.1697L41.3905 10.9665L41.5349 10.8542L41.6899 10.7527L41.968 10.5227L42.091 10.3784L42.2193 10.2447L42.3583 10.1164L42.4813 9.98269L42.7005 9.69397L42.8074 9.53355L43.0267 9.23948L43.3101 8.75826L43.3849 8.59784L43.4812 8.43744L43.54 8.26098V8.08454L43.4598 7.99364L43.3207 7.96691L43.1978 8.05246L43.1015 8.2289L42.9786 8.43744L42.9197 8.54972ZM37.1397 9.90249L37.1878 9.71535L37.252 9.52287L37.2841 9.34641V9.17532V8.99886L37.252 8.82777V8.65131V8.49625V8.32516V8.1487L37.1878 8.3412L37.129 8.5016L37.0649 8.67804L37.0167 8.84915L36.9526 9.20205L36.9044 9.38919L36.8136 9.92388L36.7654 10.1003L36.7334 10.2928L36.6852 10.4693L36.6531 10.6404L36.6211 10.7527V10.881L36.5729 10.9772L36.4927 11.0735L36.3537 11.1911L36.1826 11.2606L35.8565 11.3462L35.5945 11.405H35.4234H35.1132L34.9582 11.4424L34.9849 11.5012L35.172 11.56L35.3592 11.6028H35.7335H35.9206H36.1184H36.3056L36.4927 11.5654L36.6638 11.4959L36.8189 11.4103L36.9258 11.266L37.006 11.0895L37.0381 10.897L37.0862 10.7099V10.5174L37.1183 10.3303L37.1504 10.1217L37.1397 9.90249ZM39.1181 1.98906L39.0593 2.18154L38.9951 2.35799L38.9309 2.55048L38.7919 2.91406L38.6636 3.29904L38.6048 3.4755L38.4764 3.86048L38.4016 4.03692L38.3535 4.22406L38.4016 4.32031L38.5673 4.28289L38.7277 4.1813L38.8347 4.05296L38.9256 3.89256L38.9737 3.70006L39.0539 3.50758L39.1769 3.1226L39.332 2.74297L39.4122 2.56652L39.4496 2.3366L39.4977 2.14412L39.6207 1.75914L39.7009 1.58804L39.7757 1.39554L39.872 1.20306L39.9201 1.0266L39.8399 0.80739L39.626 0.764606L39.5137 0.850158L39.4389 1.04264L39.3587 1.2191L39.1715 1.79122L39.1181 1.98906ZM37.7386 7.30923L37.8776 7.21299L38.0166 7.09536L38.1449 6.96704L38.2519 6.81732L38.3748 6.67295L38.5032 6.56067L38.5941 6.49115L38.9042 6.30936L39.0004 6.26124L39.1234 6.15965L39.2036 6.01529L39.1555 5.90834L39.0753 5.87626H38.9149L38.7759 5.91369L38.6208 5.96181L38.4658 6.03133L38.3107 6.13292L38.1717 6.22916L38.0433 6.34679L37.9364 6.47511L37.8562 6.55533L37.7493 6.70504L37.6263 6.86544L37.514 7.05793L37.4231 7.25042L37.375 7.39478H37.4552L37.5782 7.33062L37.7386 7.30923ZM9.66723 24.7402L9.75278 24.4675L9.84368 24.2215L9.90784 23.9542L9.9934 23.7082L10.1698 23.1736L10.3249 22.9918L10.5227 22.8688L11.0949 22.8367L11.3782 22.8634H11.6456L11.9343 22.8902L12.1963 22.9169H12.3086L12.2391 22.8313L12.0199 22.6923L11.7793 22.5533L11.6242 22.4731L11.4478 22.4196L11.298 22.3822L11.0574 22.3555L10.8329 22.302L10.5922 22.2699H10.373H10.111L9.8009 22.3715L9.65119 22.5587L9.58169 22.8046L9.49614 23.0506L9.29829 23.7884L9.21275 24.0344L9.14324 24.2804L9.10045 24.5263L8.97213 24.7937L8.85985 25.0182L8.68339 25.5102L8.61923 25.7561L8.53368 26.0021V26.1785L8.61923 26.3496L8.75291 26.4084H8.92401L9.05769 26.2694L9.14857 26.0235L9.25552 25.7721L9.43196 25.2802L9.51751 25.0129L9.66723 24.7402ZM16.8909 24.3927L16.8482 24.152L16.7572 23.9168L16.6503 23.7029L16.5594 23.4676L16.5166 23.4249V23.5157L16.5594 23.7992L16.6022 24.0611V24.3231V24.5851L16.5166 25.1198L16.4525 25.3872L16.383 25.6813L16.1637 26.2641L15.9017 26.8255L15.7681 27.0768L15.597 27.3281L15.4205 27.558L15.0249 27.9804L14.8056 28.1676L14.3672 28.4991L14.1693 28.6435L13.5063 29.0124L13.2657 29.114L13.0465 29.1942L12.8059 29.2744L12.5653 29.3332L11.8167 29.4669L11.5761 29.5257H11.1804H10.6778L10.1431 29.4936H9.85972L9.59238 29.4401L9.30899 29.3706H9.19671L9.26621 29.4134L9.66189 29.5845L9.98804 29.6968L10.4746 29.8465L10.7152 29.8732H11.4798L12.5492 29.8091L12.8112 29.7717L13.0732 29.6915L13.3352 29.6273L13.8699 29.4669L14.3511 29.2423L14.5971 29.114L15.2762 28.6328L15.4954 28.467L15.6932 28.2799L15.8697 28.0713L16.0675 27.7772L16.1744 27.6168L16.3295 27.3869L16.4632 27.157L16.5701 26.911L16.661 26.6437L16.7466 26.3977L16.8321 26.125L16.9658 25.3925V25.1305V24.8899V24.6493L16.8909 24.3927ZM11.6456 17.4791L11.5761 17.57L11.4478 17.7144L11.2927 17.9175L11.159 18.1475L11.0521 18.3934L10.9184 18.6233L10.8061 18.8693L10.742 19.1152L10.6564 19.3612L10.5869 19.6072L10.6136 19.7622L10.742 19.7943L10.9184 19.7622L11.1163 19.6392L11.2499 19.4788L11.3355 19.2329L11.5119 18.7837L11.6189 18.5592L11.7311 18.356L12.0359 17.9389V17.6341L11.7953 17.4684H11.667L11.6456 17.4791ZM5.97785 20.9385L5.84418 21.1631L5.71586 21.3503L5.51803 21.5374L5.34157 21.7245L5.14374 21.8689L4.92451 22.0133L4.6946 22.1202L4.45398 22.2004L4.36309 22.2485H4.45398L4.95659 22.2165L5.19721 22.1576L5.43783 22.056L5.66239 21.9545L5.88161 21.8101L6.07945 21.6443L6.25055 21.4786L6.40562 21.2754L6.53929 21.0669L6.60345 20.8209L6.64622 20.5803L6.58206 20.3611L6.5179 20.1258L6.42699 19.8905L6.29867 19.4467V19.1848L6.34144 18.9388L6.40562 18.6928L6.5179 18.4683L6.64622 18.2437L6.82268 18.0352L6.97773 17.8266L7.17558 17.6395L7.57124 17.308L7.79047 17.1422L8.00969 16.9979L8.49091 16.7466L8.97749 16.5434L9.30364 16.4364L9.4587 16.383L9.69931 16.3028L10.234 16.1584L10.4746 16.121L10.8222 16.0782L11.5066 16.0408H11.7686L11.5066 16.014L11.2178 15.9873H10.9558L10.6938 15.9606H10.4051H10.1431L9.60842 16.0408L9.07373 16.1584L8.81173 16.26L8.54439 16.3188L8.28238 16.4257L8.04177 16.5273L7.80116 16.6717L7.53916 16.8L7.29319 16.9444L7.07398 17.0888L6.85476 17.2599L6.69969 17.3775L6.4377 17.6128L6.23986 17.8213L6.0848 18.0512L5.93509 18.3239L5.84418 18.5912L5.78002 18.88V19.1901V19.4735L5.82279 19.7569L5.91369 20.0349L5.99925 20.2702L6.04201 20.5108V20.7514L5.97785 20.9385ZM17.3989 18.5859L17.4417 18.3186V18.0298V17.7464V17.463L17.3989 17.1797L17.308 16.923L17.1743 16.6663L17.1101 16.5808V16.6717V16.9337V17.4363V17.7036L17.046 17.9496L16.9979 18.1902L16.9337 18.4362L16.8482 18.6608L16.7145 18.8907L16.4953 19.3398L16.3616 19.5483L16.2119 19.7301L16.0354 19.9173L15.8376 20.0616L15.6611 20.2274L15.2655 20.5375L15.0462 20.6819L14.827 20.8049L14.7361 20.9172L14.7842 21.0241L14.9126 21.1257L15.1104 21.1845L15.3296 21.1471L15.5488 21.0241L15.7734 20.8797L15.9659 20.714L16.2332 20.4787L16.3616 20.3397L16.5594 20.1739L16.7359 19.9868L16.9123 19.7783L17.046 19.5751L17.1743 19.3238L17.3508 18.8319L17.3989 18.5859ZM9.27156 28.8841L9.03094 28.8359L8.79034 28.7611L8.06315 28.4777L7.84394 28.3814L7.62471 28.2585L7.40549 28.1195L7.20766 27.9804L7.00981 27.9484L6.83336 28.0446L6.63553 28.2531L6.4377 28.4403L6.21847 28.6328L5.49663 29.0712L5.25602 29.1728L4.98867 29.2744L4.72668 29.3546L4.19198 29.4348L3.92999 29.4936L3.6466 29.531L3.13864 29.5631H2.63603L2.39543 29.5364L1.90885 29.4562L1.66824 29.4027L1.42764 29.3332L1.18702 29.237L0.967791 29.1407L0.572124 28.8573L0.395667 28.6916L0.240618 28.4777L0.133673 28.2638L0.0427682 28.0286L0 27.7933V27.5527V27.2853V27.0233L0.133673 26.5314L0.352899 26.0342L0.48122 25.8096L0.657677 25.6224L0.855511 25.4353L1.07474 25.2696L1.51317 25.0236L1.75379 24.9167L2.0853 24.8097L2.26175 24.7776L2.50236 24.7188L2.76437 24.6814H3.03171H3.29371H3.5557L4.06366 24.7135L4.32566 24.7669L4.56628 24.8151L4.7855 24.9113L5.04749 24.9648L5.29345 25.0557L5.51267 25.1305H5.68912L5.83885 25.0075L5.92973 24.7616L6.05805 24.2269L6.3254 23.489L6.38958 23.2431L6.45374 22.9757L6.52325 22.7298L6.60879 22.1951L6.69434 21.9491L6.76385 21.7032L6.94031 21.2112L7.02585 20.9439L7.15952 20.452L7.2237 20.1846L7.30925 19.9387L7.37874 19.6927L7.4643 19.4467L7.57659 19.1954L7.66213 18.9495L7.88136 18.4522L8.01503 18.2277L8.12197 17.9763L8.23426 17.7518L8.38932 17.5432L8.73687 17.1262L8.9347 16.939L9.15393 16.7733L9.59773 16.5273L10.1003 16.4525H10.3409L10.5816 16.5006L11.02 16.6503L11.2446 16.7679L11.3943 16.939L11.3515 17.1369L10.9131 17.6716L10.7366 17.9496L10.6029 18.1742L10.496 18.4255L10.3196 18.9174L10.2554 19.1634L10.0789 19.6553L10.0148 19.9012L9.92388 20.1472L9.96665 20.3237L10.1431 20.3771L10.4051 20.3397L10.6724 20.2809L11.2071 20.1365L11.4478 20.0563L11.7151 19.9547L12.1963 19.7034L12.4369 19.559L12.6562 19.4147L12.8754 19.2489L13.0732 19.0404L13.2497 18.8319L13.4047 18.6019L13.5384 18.372L13.6667 18.1261L13.7576 17.8748L13.8218 17.6074V17.0727L13.7576 16.8107L13.6453 16.5755L13.517 16.3455L13.3406 16.1584L13.1427 15.9713L12.9235 15.8322L12.6775 15.736L12.4156 15.6611L11.8809 15.5649L11.3462 15.5061H10.8115L10.2768 15.5382L10.0362 15.5756H9.76882L9.50683 15.613L9.24483 15.6718L9.00421 15.752L8.73687 15.8108L8.49625 15.8697L8.25565 15.9499L7.77443 16.1317L7.53381 16.2332L7.28786 16.3616L7.06863 16.5059L6.82801 16.6503L6.60879 16.7947L6.21312 17.1262L6.01529 17.3133L5.83885 17.5219L5.68912 17.7518L5.57683 17.9763L5.49128 18.2223L5.42177 18.4683L5.33623 18.7142L5.29345 18.9816V19.2275V19.4895L5.35761 19.7462L5.42177 19.9868L5.46455 20.1579L5.55544 20.4841V20.6979L5.44316 20.9278L5.31484 21.1096L4.98333 21.393L4.72132 21.5855L4.50211 21.6871L4.02088 21.7566L3.77492 21.6871L3.5557 21.5641L3.16003 21.238L2.98893 21.0508L2.83386 20.8423L2.70019 20.607L2.59326 20.3718L2.50236 20.1365L2.43819 19.9012L2.39543 19.6392V18.8479L2.43819 18.5806L2.52375 18.249L2.65742 17.7999L2.76437 17.5539L2.89804 17.324L3.20815 16.8695L3.74284 16.2439L3.94068 16.0568L4.59836 15.5542L4.81758 15.4098L5.06353 15.2868L5.28276 15.1157L5.50199 14.9928L5.76398 14.8912L6.0046 14.7896L6.2452 14.6666L6.51255 14.5383L6.75316 14.4367L7.19162 14.303L7.52312 14.1907L8.30912 14.0143L8.57647 13.9341L8.83846 13.8966H9.10045L9.80625 13.763L10.1538 13.7202L10.6885 13.6881H11.4798L11.7418 13.7148H12.0252H12.2926L12.5546 13.7416L13.0893 13.8432L13.8378 14.0624L14.0998 14.1105L14.5864 14.303L14.827 14.4206L15.0462 14.5383L15.2655 14.6773L15.4847 14.8431L15.6825 15.0249L15.8804 15.1906L16.0354 15.3778L16.1905 15.5916L16.2974 15.8269L16.4311 16.0568L16.5166 16.2974L16.5808 16.5541L16.6717 17.0888V17.6234L16.5808 18.1581L16.4578 18.3774L16.3455 18.6019L16.0835 19.0564L15.9552 19.265L15.4205 19.7996L15.2227 19.9654L14.9393 20.1579L14.565 20.3557L14.3244 20.4787L13.6186 20.7193L13.3566 20.7781L13.1374 20.837L13.0465 20.8637L13.1374 20.9011L13.378 20.9546L14.0357 21.1578L14.3458 21.2914L14.565 21.4091L14.7628 21.5534L14.9607 21.7406L15.1371 21.9277L15.2868 22.1149L15.6825 22.7511L15.7948 22.9864L15.859 23.2217L15.9499 23.4569L15.9926 23.7189L16.0354 23.9596L16.0782 24.4942V24.7937L16.0354 25.061L15.9926 25.3016L15.9231 25.569L15.8376 25.8203L15.752 26.0876L15.6397 26.3336L15.5061 26.5635L15.3564 26.8148L15.2013 27.0394L15.0249 27.2479L14.8484 27.4351L14.6506 27.6222L14.4527 27.8307L14.2549 27.9965L14.0357 28.1676L13.8164 28.3119L13.5758 28.4349L13.3352 28.5365L13.0946 28.6595L12.8273 28.7664L12.5867 28.8466L12.052 28.9643L11.5173 29.0391L10.9826 29.0712H10.7366H10.4746H10.2126L9.972 29.0391L9.72605 28.9857L9.27156 28.8841ZM4.99402 26.6384L4.84431 26.4726L4.68924 26.4405L4.49141 26.3389L4.29358 26.2855L4.07435 26.2534H3.53966L3.27767 26.3122L3.01566 26.4191L2.79645 26.6277L2.64138 26.8576L2.5986 27.1249V27.3869L2.75366 27.5955L2.97289 27.7559L3.23488 27.8307H3.49689L3.78561 27.7452L4.04762 27.665L4.30962 27.5206L4.55024 27.3281L4.74807 27.0982L4.92451 26.8469L4.99402 26.6384ZM9.23413 27.1303L9.47474 27.2265L9.73674 27.3014L10.0041 27.3495L10.2661 27.3762H10.5762H10.8382L11.1269 27.3388L11.3889 27.28L11.6509 27.1998L11.8969 27.0715L12.1375 26.9271L12.3354 26.74L12.6829 26.2801L12.993 25.8203L13.1 25.5743L13.2978 24.7723V24.5263V24.2643V24.0023L13.2497 23.7617L13.1213 23.2858L13.0304 23.0506L12.9021 22.8367L12.715 22.6549L12.5385 22.4891L12.3407 22.3448L12.1215 22.2058L11.9023 22.0881L11.6402 21.9919L11.2873 21.901L11.0895 21.8689L10.234 21.7887L9.6405 21.8261L9.42127 21.9705L9.26621 22.1576L9.18067 22.4036L9.11116 22.6495L8.98282 23.1842L8.89193 23.4302L8.84915 23.6762L8.71547 24.1681L8.62992 24.4354L8.45348 24.9273L8.38932 25.1733L8.21286 25.6652L8.10058 25.9165L7.99365 26.1411V26.3603L8.07919 26.5528L8.29842 26.6972L8.62992 26.8736L8.78499 26.9538L9.11116 27.0875L9.23413 27.1303ZM3.81236 26.6865H3.54501L3.30439 26.8095L3.10656 27.002V27.2426L3.19746 27.4778H3.36855L3.52362 27.3602L3.67868 27.1731L3.87652 27.0287L4.09574 26.9271L4.33635 26.8683L4.42725 26.8415L4.20267 26.7453L3.81236 26.6865ZM7.07932 28.6007L6.86009 28.6595L6.66226 28.8466L6.22381 29.1782L5.98321 29.3011L5.72121 29.4295L5.23998 29.6754L4.97263 29.7823L4.43794 29.9L4.14922 29.9588L3.88721 29.9962L3.38459 30.0283H2.8499H2.56652L2.29917 30.0016L2.01578 29.9748L1.9035 30.0016L1.97302 30.0871L2.19224 30.1834L2.5184 30.2475L2.67346 30.285L3.20815 30.3384L3.44877 30.3919H3.98346H4.25081L5.04214 30.2796L5.30415 30.2208L5.56615 30.1406L6.04737 29.9107L6.53394 29.6647L6.77456 29.515L6.99377 29.3706L7.38945 28.9963V28.8199L7.2825 28.6755L7.07932 28.6007ZM22.8741 18.9121L22.7405 19.0511L22.6763 19.297L22.1416 20.8583L22.0774 21.1043L21.9865 21.3503L21.901 21.5748L21.7245 22.0721L21.639 22.2967L21.5481 22.5426L21.4198 23.0345L21.3075 23.4569L21.2219 23.7938L21.1791 24.0344L21.131 24.1948L21.0883 24.2804V24.3499L21.0241 24.5958L20.9546 24.8632L20.869 25.1519L20.8049 25.4406L20.7568 25.7508V26.0181V26.1946L20.8476 26.232L20.9974 26.1785L21.1524 26.0823L21.3075 25.9165L21.393 25.7187L21.4412 25.4727L21.5053 25.2482L21.5695 25.0022L21.7032 24.4675L21.7673 24.2215L21.9438 23.6869L22.0079 23.4195L22.1202 23.1468L22.2058 22.8795L22.3394 22.3448L22.425 22.0988L22.6014 21.5641L22.7137 21.2968L22.7993 21.0241L23.2431 19.6874L23.334 19.42L23.3767 19.1794L23.3126 18.9388L23.1575 18.8586L22.8741 18.9121ZM19.42 29.2797L19.8798 29.3599H20.1258H20.3878L20.6284 29.3011L20.8904 29.2156L21.131 29.1354L21.3984 29.0552L21.639 28.975L21.8796 28.8734L22.0988 28.7504L22.318 28.606L22.5373 28.4403L22.9329 28.082L23.1308 27.8949L23.1949 27.7184V27.4671L23.1522 27.3174L23.0666 27.2105L22.9329 27.2639L22.7351 27.4725L22.5373 27.6596L22.1202 27.9911L21.6818 28.3226L21.4625 28.4724L21.2433 28.5953L20.7621 28.7985L20.4947 28.8573L19.9921 28.9536L19.7515 28.991L19.1794 29.0231H19.0243L18.9388 29.0498L18.9816 29.1354L19.2008 29.2102L19.42 29.2797ZM28.6488 18.5859H28.4296L28.2745 18.7677L28.189 18.9923L28.0981 19.2863L28.0125 19.5323L27.9002 19.7996L27.4351 21.1631L27.3709 21.4305L27.1035 22.2325L27.018 22.5266L26.9324 22.7939L26.8202 23.0666L26.756 23.334L26.6651 23.6013L26.6009 23.89L26.5154 24.1574L26.4673 24.4461L26.4031 24.7135L26.3389 25.0022L26.2962 25.2696L26.248 25.5583V25.7561L26.3389 25.8791H26.4673L26.6009 25.7829L26.756 25.5743L26.8629 25.3498L26.9324 25.1038L27.0608 24.5691L27.1303 24.3231L27.1731 24.0611L27.2586 23.7884L27.3281 23.5425L27.4351 23.2751L27.6115 22.7779L27.6757 22.5105L27.8521 22.0186L27.9163 21.7513L28.0072 21.4839L28.1141 21.2326L28.2264 21.0081L28.6916 19.6927L28.7557 19.4254L28.8466 19.158L28.8894 18.9121L28.8253 18.6768L28.6488 18.5859ZM33.1937 18.9602L33.4985 18.5004L33.6321 18.249L33.7605 18.0245L33.9155 17.7732L34.0278 17.5486L34.1829 17.2064L34.4449 16.5327L34.5304 16.2867L34.6213 16.014L34.8191 15.212V15.0141L34.7496 14.9339L34.6427 15.0035L34.5304 15.1425L34.3807 15.3938L34.2256 15.6665L34.092 15.9392L33.8727 16.522L33.7605 16.7947L33.6749 17.062L33.5626 17.308L33.1242 18.4362L33.0814 18.6821L33.0172 18.9014L32.9263 19.1527V19.2382L33.0172 19.1687L33.1937 18.9602ZM38.3107 27.4404L37.776 27.3869L37.5086 27.3121L37.268 27.2158L37.0488 27.0768L36.851 26.9378L36.6531 26.772L36.3858 26.4031L36.2361 26.6009L35.6426 27.1624L35.4447 27.3281L35.2255 27.4939L34.9849 27.6382L34.8512 27.7345L34.5411 27.9323L34.3005 28.0553L34.0599 28.1569L33.8834 28.2317L33.5519 28.3654L33.3113 28.4456L33.0493 28.5044L32.8087 28.5632L32.5414 28.6221L32.2794 28.6595H32.0174L31.4827 28.6274L31.2421 28.5739L30.7608 28.3814L30.7127 28.2959H30.825H31.0228H31.2848L31.8195 28.2638L32.3542 28.189L32.6162 28.1301L32.8782 28.0446L33.1456 27.9858L33.4076 27.8842L33.6482 27.7826L34.2631 27.4778L34.5518 27.3067L34.7496 27.1677L34.9475 27.002L35.0758 26.9057L35.3432 26.6704L35.5356 26.4833L35.7335 26.2694L35.9099 26.0395L36.065 25.8096L36.0917 25.7829L36.0436 25.5957L36.0008 25.3337V25.1786L35.9474 25.2482L35.8404 25.3872L35.6853 25.5957L35.3324 26.0128L35.1346 26.1999L34.9635 26.4084L34.7657 26.5742L34.5411 26.74L34.3219 26.8843L34.1027 27.0501L33.8834 27.1731L33.6428 27.3014L33.3808 27.403L33.1349 27.5259L32.8943 27.6062L32.6323 27.665L32.3703 27.7024L32.1243 27.7612L31.5896 27.8414H31.3223H31.0603L30.5256 27.7879L30.2636 27.7131L30.023 27.6222L29.8251 27.4671L29.6273 27.3281L29.4295 27.1624L29.1193 26.74L29.0819 26.6704L29.0552 26.7025L28.8787 26.911L28.6809 27.1196L28.328 27.5366L28.1301 27.7238L27.9109 27.9109L27.6917 28.082L27.2105 28.3708L26.9485 28.4991L26.7079 28.6221L26.4619 28.7237L26.1999 28.7825L25.6278 28.8413L25.3658 28.8092H25.0824L24.9487 28.7343V28.6648H24.9915H25.1038H25.3016L25.5636 28.606L26.0983 28.4456L26.5795 28.1943L26.8202 28.0286L27.0394 27.8842L27.28 27.7131L27.4992 27.5473L27.697 27.3602L28.0927 26.9645L28.2906 26.7506L28.467 26.5475L28.6648 26.3122L28.8413 26.0823V26.0395L28.7985 25.7775L28.7718 25.5155V25.3925V25.43L28.6221 25.6599L28.467 25.8631L28.2906 26.0983L27.7559 26.6758L27.4939 26.9324L27.3655 27.0501L26.9699 27.4297L26.7506 27.5955L26.5261 27.7398L26.2855 27.8628L26.0448 27.9644L25.8042 28.0446L25.5422 28.1301L25.2963 28.189L25.0343 28.2264H24.7723L24.5317 28.1783L24.3125 28.082L24.1146 27.9377L23.9382 27.7719L23.6762 27.3495L23.5425 26.8736V26.3924L23.5853 25.8577V25.7721L23.5211 25.8631L23.3874 26.0876L23.2324 26.3175L23.0559 26.5261L22.949 26.6865L22.7298 26.9645L22.4891 27.2212L22.3555 27.3388L22.1576 27.5259L21.7192 27.8575L21.2807 28.1462L21.0401 28.2745L20.5054 28.4349L20.2648 28.4937L20.0028 28.5526L19.7355 28.59H19.4735H19.1313L18.8639 28.5579L18.6019 28.5098L18.3399 28.4349L18.1207 28.3387L17.9015 28.1783L17.7036 27.9911L17.5486 27.7826L17.4417 27.5473L17.3721 27.2853L17.3294 27.0287V26.1946V25.9058L17.3935 25.6385L17.463 25.3925L17.5486 25.1466L17.6823 24.6119L17.725 24.3445L17.7892 24.0986L17.8801 23.8312L17.9443 23.5853L17.987 23.3179L18.0565 23.072L18.1207 22.8046L18.2063 22.5587L18.2972 22.2913L18.3827 22.0453L18.5378 21.5107L18.6233 21.2433L19.158 19.682L19.2222 19.4147L19.2917 19.1687L19.3772 18.9014L19.4628 18.6554L19.5965 18.4255L19.7515 18.1956L19.9921 18.094L20.2541 18.0138L20.7888 17.9389H21.5802H21.8422L22.1042 17.9924L22.3448 18.0673L22.3929 18.2811L22.3448 18.5485L22.2592 18.7944L22.1951 19.0618L21.5534 20.9385L21.4412 21.1845L21.1791 21.9919L21.115 22.2592L21.0241 22.5266L20.9813 22.7084L20.869 23.0666L20.7835 23.334L20.7193 23.5799L20.6498 23.8473L20.5856 24.136L20.5215 24.4033L20.4306 24.6921L20.3664 24.9808L20.2755 25.2535L20.2327 25.5422V25.8256V26.1144L20.2969 26.3496L20.4306 26.5635L20.6926 26.6116L20.9385 26.5528L21.1791 26.4298L21.3984 26.2855L21.6176 26.1144L22.0133 25.7401L22.1897 25.5315L22.5159 25.0984L22.6709 24.8685L22.8046 24.6172L22.9329 24.3927L23.0452 24.1413L23.1308 23.8954L23.2645 23.6441L23.35 23.3981L23.4623 23.1308L23.5265 22.8634L23.5906 22.5747L23.6815 22.302L23.7884 22.056L23.9007 21.7834L24.6279 19.6446L24.8044 19.1099L24.9808 18.5752L25.0931 18.3079L25.2 18.0565L25.3551 17.8748L25.5957 17.7732L25.8577 17.6876L26.125 17.6288H26.4726H26.6491H26.911H27.1784L27.4404 17.6555L27.7024 17.725L27.9216 17.8213L27.9911 18.0405L27.8575 18.5324L27.5955 19.2703L27.4832 19.5163L27.018 20.837L26.9538 21.0776L26.7774 21.5748L26.7132 21.8208L26.6437 22.0881L26.4673 22.58L26.2748 23.3179L26.2053 23.5853L26.1411 23.8312L26.0502 24.0772L25.986 24.3231L25.9219 24.5905L25.8791 24.8311L25.831 25.0984L25.7882 25.3444V25.6064V25.8684L25.831 26.109L25.9433 26.3443L26.1625 26.4191L26.4245 26.3817L26.6651 26.2373L26.8843 26.0662L27.0822 25.8791L27.7879 25.0503L28.1408 24.5851L28.2692 24.3606L28.4028 24.1093L28.5312 23.8847L28.6648 23.6334L28.7771 23.3874L28.8734 23.2377V23.0666L29.007 22.2699L29.2049 21.4679L29.269 21.2219L29.3332 20.9546L29.4241 20.4199L29.5578 19.8852L29.7289 19.3933L29.8198 19.1206L29.8839 18.8746L29.9534 18.6073L30.0176 18.3613L30.1032 18.1154L30.1941 17.848L30.4133 17.3507L30.6111 16.8535L30.8303 16.3562L30.964 16.1103L31.071 15.8803L31.226 15.629L31.7607 14.7201L32.0655 14.2602L32.2206 14.0571L32.5735 13.64L32.9691 13.2657L33.1456 13.0786L33.3381 12.8914L33.6482 12.6936L33.8246 12.6187L34.0652 12.4958L34.3058 12.3942L34.5518 12.3354L34.8138 12.2712L35.0758 12.2338H35.3432H35.6051L35.8671 12.3033L36.1078 12.3781L36.327 12.4958L36.5248 12.6401L36.7227 12.8005L36.8991 13.0144L37.0542 13.2229L37.1878 13.4368L37.3643 13.9073L37.4284 14.1426L37.4926 14.4046V14.6666V15.2013V15.4633L37.4498 15.7306L37.3857 15.9766L37.3162 16.2439L37.2306 16.5113L37.1451 16.7626L36.9205 17.2599L36.8349 17.5058L36.7013 17.7518L36.5729 17.9817L36.4179 18.2116L36.22 18.5057L36.1078 18.6661L35.9794 18.896L35.8244 19.1259L35.4715 19.543L35.2736 19.7301L35.0972 19.9387L34.8993 20.1044L34.6801 20.2916L33.8888 21.0455L33.4503 21.377L33.2311 21.5214L32.9905 21.6711L32.5253 21.9384L32.3061 22.0828L32.0655 22.2058L31.8035 22.3127L31.6056 22.4785L31.4934 22.6816L31.3864 23.2163L31.3383 23.4837V23.7457V24.0344L31.2955 24.5691V25.1038L31.3383 25.3604L31.4506 25.6224L31.6056 25.831L31.8249 25.9486L32.0869 26.0448H32.6216L32.8836 25.986L33.1456 25.9058L33.4129 25.7989L33.6535 25.6759L33.8941 25.5262L34.1134 25.3818L34.3326 25.2161L34.5732 25.0503L34.771 24.8846L34.9689 24.6707L35.1453 24.4622L35.5196 24.0665L35.6961 23.8366L35.8511 23.612L36.0971 23.2217V23.1308L36.1398 22.5961L36.2735 21.7994L36.4713 20.9974L36.5355 20.7514L36.605 20.4841L36.6906 19.9494L36.7601 19.666L36.6692 19.7729L36.3163 20.1686L36.1612 20.3771L35.9901 20.5856L35.5945 20.9599L35.418 21.1685L35.2202 21.3556L35.0223 21.5214L34.5839 21.8529L34.3593 22.0026L34.1615 22.1897L33.9636 22.3341L33.723 22.4785L33.4824 22.6014L33.2632 22.7458L33.044 22.8688L32.8034 22.9971L32.6269 23.1575L32.4932 23.3447L32.4291 23.5906L32.2954 24.3231L32.2526 24.5905L32.1617 25.0771V25.3391L32.0976 25.4781L31.9425 25.4193L31.8356 25.2268L31.7661 24.9915V24.7509V24.4836L31.8356 23.6227V23.3179L31.8997 23.0238L32.012 22.7779L32.2098 22.6121L32.4505 22.5105L32.8889 22.2218L33.5038 21.8315L34.0385 21.4465L34.2577 21.2807L34.477 21.0669L35.172 20.5161L35.6105 20.1365L35.8083 19.9066L35.9848 19.6981L36.1559 19.4681L36.3109 19.2382L36.4874 19.0083L36.6424 18.7784L36.7975 18.5271L36.9472 18.2972L37.2146 17.8427L37.3215 17.5967L37.4338 17.3721L37.5407 17.1208L37.6316 16.8963L37.7172 16.6503L37.7867 16.4043L37.8295 16.1584L37.8936 15.9124L37.9845 15.4259V15.1799V14.6987V14.4581L37.9364 14.1961V14.1319L38.0059 14.1907L38.1129 14.4474L38.2038 14.6826L38.2679 14.9233L38.3321 15.1853V15.4312L38.4658 15.2173L39.0004 14.3084L39.3052 13.8485L39.4603 13.6453L39.8132 13.2283L40.2089 12.8487L40.3853 12.6669L40.5831 12.4797L40.8879 12.2819L41.0643 12.207L41.305 12.084L41.5509 11.9771L41.7915 11.9236L42.0535 11.8595L42.3155 11.822H42.5829L42.8449 11.8541L43.1069 11.9236L43.3528 11.9985L43.5721 12.1161L43.7699 12.2605L43.9677 12.4209L44.1388 12.6294L44.2939 12.8433L44.4276 13.0518L44.604 13.5277L44.6682 13.763L44.7323 14.025L44.7591 14.287V14.8217L44.7323 15.0837L44.6896 15.351L44.6254 15.597L44.5612 15.8643L44.4703 16.1317L44.3848 16.383L44.1656 16.8749L44.0747 17.1262L43.9463 17.3721L43.8127 17.6021L43.6576 17.832L43.4598 18.1261L43.3528 18.2865L43.2192 18.5164L43.0641 18.7463L42.7112 19.1634L42.5134 19.3505L42.3369 19.559L42.1391 19.7248L41.9199 19.9119L41.1285 20.6605L40.6901 20.9974L40.4708 21.1417L40.2302 21.2861L39.7704 21.5588L39.5458 21.7032L39.3052 21.8261L39.0432 21.9331L38.8454 22.0988L38.7331 22.302L38.6262 22.8367L38.5834 23.0987V23.366L38.5566 23.6548L38.5139 24.1895V24.7242L38.5566 24.9862L38.6689 25.2428L38.824 25.4567L39.0432 25.5743L39.3052 25.6706H39.8399L40.1019 25.6117L40.3639 25.5262L40.6312 25.4246L40.8719 25.3016L41.1125 25.1519L41.3317 25.0075L41.5509 24.8418L41.7969 24.676L41.9947 24.5103L42.1926 24.2964L42.3637 24.0879L42.7379 23.6922L42.9144 23.4623L43.0694 23.2324L43.3796 22.7565L43.5293 22.5266L43.7057 22.318L43.925 22.1951L44.1923 22.286L44.4115 22.4303L44.4543 22.6656L44.342 23.0024L43.9945 23.6387L43.8608 23.8686L43.7057 24.0986L43.5774 24.3017L43.4223 24.5317L43.1924 24.7937L43.0801 24.9327L42.9251 25.1412L42.5775 25.5529L42.3797 25.7454L42.2032 25.954L42.0054 26.1197L41.7862 26.2855L41.567 26.4298L41.3424 26.5956L41.1232 26.7186L40.8826 26.8415L40.6206 26.9485L40.3799 27.0715L40.134 27.1517L39.872 27.2105L39.61 27.2479L39.3694 27.3067L38.8347 27.3816H38.5727L38.3107 27.4404ZM39.2571 20.0884V20.1739L39.3908 20.1472L39.765 19.8585L40.0484 19.6232L40.4441 19.2061L40.797 18.741L41.2568 18.0565L41.567 17.5539L41.6953 17.3026L41.8076 17.0567L41.8931 16.7893L42.091 16.2546L42.1819 16.0087L42.2674 15.736L42.3316 15.4686L42.4011 15.2227L42.4653 14.9553V14.4206L42.4011 14.18L42.2888 13.9448L42.0696 13.8913L41.829 13.9501L41.6311 14.1373L41.4547 14.3458L41.321 14.5757L41.1713 14.8056L40.9039 15.2601L40.6847 15.7574L40.4227 16.4953L40.3586 16.7412L40.2677 16.9658L40.1607 17.1957L39.9843 17.6876L39.8934 17.9122L39.8506 18.1581L39.7864 18.4041L39.6955 18.6287L39.61 18.8746L39.5672 19.0297L39.4549 19.3665L39.3908 19.6125L39.2999 19.8371L39.2571 20.0884ZM32.0281 20.5215V20.607L32.1617 20.5803L32.5307 20.2916L32.8194 20.0563L33.2151 19.6392L33.568 19.1741L34.0278 18.4896L34.3326 17.987L34.4662 17.7357L34.5785 17.4898L34.6641 17.2224L34.8619 16.6877L34.9528 16.4418L35.0384 16.1691L35.1025 15.9017L35.172 15.6558L35.2362 15.3884V14.8537L35.172 14.6131L35.0598 14.3779L34.8405 14.3244L34.5999 14.3832L34.4021 14.5704L34.2256 14.7789L34.092 15.0088L33.9369 15.2387L33.6749 15.6932L33.4557 16.1905L33.1937 16.9284L33.1242 17.1743L33.0386 17.3989L32.9263 17.6288L32.7552 18.1207L32.6643 18.3453L32.6216 18.5912L32.5574 18.8372L32.4665 19.0618L32.381 19.3077L32.3328 19.4628L32.2259 19.7996L32.1617 20.0456L32.0708 20.2702L32.0281 20.5215ZM45.1013 23.1468H44.9034L44.6628 23.3821L44.5773 23.5371L44.3099 24.0398L44.2244 24.1948L44.0265 24.5156L43.8715 24.7669L43.695 24.9969L43.5186 25.2054L43.3207 25.4139L43.171 25.6438L42.9946 25.8737L42.7968 26.0823L42.5989 26.2748L42.3316 26.51L42.2032 26.6009L42.0054 26.7667L41.8076 26.911L41.5188 27.0822L40.9039 27.3869L40.6633 27.4885L40.4013 27.5901L40.134 27.6489L39.872 27.7345L39.61 27.7933L39.0753 27.8682L38.5406 27.9002H38.2786H38.0808H37.9685L38.0166 27.9858L38.4978 28.1783L38.7384 28.2264L39.2731 28.2638H39.5351L39.8025 28.2264L40.0645 28.1676L40.3051 28.1088L40.519 28.0018L40.7649 27.9216L41.0911 27.7879L41.2675 27.7131L41.5082 27.6115L41.7541 27.4885L42.0589 27.2907L42.1926 27.1944L42.4332 27.0501L42.6524 26.8843L42.8502 26.7186L43.4437 26.1518L43.6202 25.9219L43.7752 25.7401L44.1495 25.3444L44.4543 24.8846L44.7163 24.4301L45.0264 23.9702L45.1601 23.7243L45.2456 23.473L45.2029 23.2591L45.1013 23.1468ZM45.5183 14.5062L45.4542 14.2656L45.3686 14.0303L45.2563 13.7737L45.1922 13.7095V13.779L45.235 14.041V14.2816V14.7628V15.0088L45.1441 15.4954L45.0799 15.7413L45.0371 15.9873L44.9676 16.2332L44.8821 16.4792L44.7965 16.7038L44.6842 16.9497L44.5719 17.1797L44.465 17.4256L44.203 17.8801L44.0479 18.11L43.8929 18.3613L43.7378 18.5912L43.5614 18.8212L43.4117 19.0511L43.2352 19.281L43.0588 19.4895L42.8609 19.7194L42.4225 20.0991L41.7595 20.7086L41.5402 20.9225L41.321 21.0883L40.7863 21.4732L40.1714 21.8582L39.733 22.1523L39.4924 22.2539L39.2945 22.4196L39.1822 22.6656L39.1181 22.9543V23.2645L39.0539 24.1253V24.3927V24.6333L39.1181 24.8685L39.2304 25.061L39.3801 25.1198L39.4496 24.9808V24.7188L39.5351 24.2269L39.5779 23.9649L39.7116 23.2324L39.7757 22.9864L39.9094 22.7993L40.0859 22.6335L40.3265 22.5105L40.5457 22.3876L40.7649 22.2432L41.0055 22.1202L41.2515 21.9705L41.4493 21.8315L41.5884 21.5855L41.8076 21.4412L42.246 21.1096L42.4439 20.9439L42.6417 20.7568L42.8181 20.5482L43.2138 20.1739L43.3903 19.9654L43.54 19.7569L43.8929 19.3612L44.0693 19.1527L44.3794 18.6982L44.6414 18.2383L44.7484 18.0138L44.9034 17.7839L45.0157 17.5593L45.1013 17.2919L45.3686 16.5487L45.4328 16.2814L45.4756 16.0354L45.5183 15.7681V15.5061L45.5665 15.2387V14.704L45.5183 14.5062ZM40.4227 18.5271L40.7275 18.0673L40.8612 17.8159L40.9949 17.5914L41.1446 17.3401L41.2568 17.1101L41.4119 16.7733L41.6739 16.0996L41.7595 15.8536L41.8503 15.5809L42.0482 14.7789V14.581L41.984 14.4955L41.8717 14.5704L41.7595 14.7094L41.6097 14.9607L41.4547 15.2334L41.321 15.5061L41.1018 16.0889L40.9949 16.3616L40.9039 16.6289L40.797 16.8749L40.3532 18.0031L40.3104 18.2437L40.2463 18.4683L40.1554 18.7142V18.8051L40.2463 18.7356L40.4227 18.5271ZM25.708 35.8671C25.7066 35.263 25.4663 34.6839 25.0396 34.2562C24.6129 33.8284 24.0344 33.5868 23.4302 33.584H21.1524C20.5401 33.5471 19.949 33.3458 19.4414 33.0012C19.5285 33.2101 19.6437 33.4061 19.7836 33.584V33.584V33.6107C19.9798 33.8507 20.2042 34.0661 20.452 34.2524C20.8139 34.5554 21.2639 34.7336 21.7352 34.7603H23.2912C23.5847 34.7603 23.8663 34.8769 24.0738 35.0845C24.2814 35.2921 24.398 35.5736 24.398 35.8671C24.398 36.1607 24.2814 36.4422 24.0738 36.6498C23.8663 36.8573 23.5847 36.974 23.2912 36.974H21.2059L21.9758 38.316H23.2912C23.5707 38.3355 23.8325 38.4603 24.0237 38.6652C24.2148 38.8701 24.3211 39.1399 24.3211 39.4202C24.3211 39.7004 24.2148 39.9702 24.0237 40.1751C23.8325 40.3801 23.5707 40.5049 23.2912 40.5243H22.9918L23.6548 41.6899C24.1046 41.6429 24.5302 41.4631 24.8774 41.1733C25.2246 40.8835 25.4777 40.497 25.6045 40.0628C25.7312 39.6287 25.7258 39.1667 25.5891 38.7356C25.4523 38.3046 25.1903 37.924 24.8365 37.6423C25.1061 37.4255 25.3229 37.15 25.4702 36.8368C25.6175 36.5237 25.6915 36.1811 25.6866 35.8351L25.708 35.8671ZM31.7179 33.584H29.4455C28.9726 33.5825 28.511 33.7283 28.1248 34.001C27.7385 34.2737 27.4466 34.6599 27.2897 35.1059C27.1328 35.552 27.1186 36.0358 27.2491 36.4903C27.3796 36.9448 27.6482 37.3474 28.0179 37.6423C27.664 37.924 27.402 38.3046 27.2653 38.7356C27.1285 39.1667 27.1231 39.6287 27.2499 40.0628C27.3766 40.497 27.6297 40.8835 27.9769 41.1733C28.3241 41.4631 28.7497 41.6429 29.1995 41.6899L29.8626 40.5243H29.5631C29.2836 40.5049 29.0218 40.3801 28.8307 40.1751C28.6395 39.9702 28.5332 39.7004 28.5332 39.4202C28.5332 39.1399 28.6395 38.8701 28.8307 38.6652C29.0218 38.4603 29.2836 38.3355 29.5631 38.316H30.8785L31.6484 36.974H29.5631C29.2696 36.974 28.9881 36.8573 28.7805 36.6498C28.5729 36.4422 28.4563 36.1607 28.4563 35.8671C28.4563 35.5736 28.5729 35.2921 28.7805 35.0845C28.9881 34.8769 29.2696 34.7603 29.5631 34.7603H31.1191C31.5904 34.7336 32.0404 34.5554 32.4023 34.2524C32.6501 34.0661 32.8745 33.8507 33.0707 33.6107V33.584C33.2125 33.4074 33.3278 33.2111 33.4129 33.0012C32.9005 33.3353 32.3077 33.5256 31.6965 33.5519L31.7179 33.584Z" fill="#E5C167"></path></svg>